# xmcd
#
# Track frame offsets:
#	150
#	12624
#	27054
#	48002
#	66306
#	82132
#	98490
#	114397
#	129188
#	144071
#	159597
#	178134
#	193233
#	206510
#	219143
#	245403
#
# Disc length: 3287 seconds
#
# Revision: 1
# Processed by: cddbd v1.5.2PL0 Copyright (c) Steve Scherf et al.
# Submitted via: audiograbber 1.83.01
#
DISCID=d20cd510
DTITLE=Tracy Lawrence - CB8591
DYEAR=1900
DGENRE=Country
TTITLE0=Tracy Lawrence - I Hope Heaven Has A Honky Tonk
TTITLE1=Tracy Lawrence - Lessons Learned
TTITLE2=Tracy Lawrence - What A Memory
TTITLE3=Tracy Lawrence - The Coast Is Clear
TTITLE4=Tracy Lawrence - If You Loved Me
TTITLE5=Tracy Lawrence - I'll Never Pass This Way Again
TTITLE6=Tracy Lawrence - Is That A Tear
TTITLE7=Tracy Lawrence - We Don't Love Here Anymore
TTITLE8=Tracy Lawrence - It's All How You Look At It
TTITLE9=Tracy Lawrence - Life Don't Have To Be So Hard
TTITLE10=Tracy Lawrence - Unforgiven
TTITLE11=Tracy Lawrence - Lonely
TTITLE12=Tracy Lawrence - My Second Home
TTITLE13=Tracy Lawrence - Sawdust On Her Halo
TTITLE14=Tracy Lawrence - While You Sleep
TTITLE15=Tracy Lawrence - Blank
EXTD=
EXTT0=
EXTT1=
EXTT2=
EXTT3=
EXTT4=
EXTT5=
EXTT6=
EXTT7=
EXTT8=
EXTT9=
EXTT10=
EXTT11=
EXTT12=
EXTT13=
EXTT14=
EXTT15=
PLAYORDER=
